<svg width="12" height="132" viewBox="0 0 12 132" fill="none" xmlns="http://www.w3.org/2000/svg">
<path d="M7 1C7 0.447715 6.55228 0 6 0C5.44772 0 5 0.447715 5 1L7 1ZM6 131.773L11.7735 126L6 120.226L0.226497 126L6 131.773ZM5 7.25C5 7.80228 5.44772 8.25 6 8.25C6.55228 8.25 7 7.80228 7 7.25H5ZM7 19.75C7 19.1977 6.55228 18.75 6 18.75C5.44772 18.75 5 19.1977 5 19.75H7ZM5 32.25C5 32.8023 5.44772 33.25 6 33.25C6.55228 33.25 7 32.8023 7 32.25H5ZM7 44.75C7 44.1977 6.55228 43.75 6 43.75C5.44772 43.75 5 44.1977 5 44.75H7ZM5 57.25C5 57.8023 5.44772 58.25 6 58.25C6.55228 58.25 7 57.8023 7 57.25H5ZM7 69.75C7 69.1977 6.55228 68.75 6 68.75C5.44772 68.75 5 69.1977 5 69.75H7ZM5 82.25C5 82.8023 5.44772 83.25 6 83.25C6.55228 83.25 7 82.8023 7 82.25H5ZM7 94.75C7 94.1977 6.55228 93.75 6 93.75C5.44772 93.75 5 94.1977 5 94.75H7ZM5 107.25C5 107.802 5.44772 108.25 6 108.25C6.55228 108.25 7 107.802 7 107.25H5ZM7 119.75C7 119.198 6.55228 118.75 6 118.75C5.44772 118.75 5 119.198 5 119.75H7ZM5 1L5 7.25H7V1L5 1ZM5 19.75L5 32.25H7L7 19.75H5ZM5 44.75L5 57.25H7L7 44.75H5ZM5 69.75L5 82.25H7L7 69.75H5ZM5 94.75L5 107.25H7L7 94.75H5ZM5 119.75L5 126H7L7 119.75H5Z" fill="#794187"/>
</svg>
