<svg width="72" height="72" viewBox="0 0 72 72" fill="none" xmlns="http://www.w3.org/2000/svg">
<circle cx="36" cy="36" r="36" fill="#372839"/>
<path d="M34.4432 29.3399L34.7499 29.3315H47.2499C48.6332 29.3314 49.9641 29.8605 50.9697 30.8104C51.9753 31.7602 52.5795 33.0588 52.6582 34.4399L52.6665 34.7482V47.2482C52.6666 48.6318 52.1373 49.9629 51.1871 50.9686C50.2369 51.9743 48.9379 52.5782 47.5565 52.6565L47.2499 52.6649H34.7499C33.3663 52.665 32.0352 52.1356 31.0295 51.1854C30.0238 50.2352 29.4199 48.9362 29.3415 47.5549L29.3332 47.2499V34.7499C29.3331 33.3663 29.8625 32.0352 30.8127 31.0295C31.7629 30.0238 33.0619 29.4199 34.4432 29.3415V29.3399ZM47.2499 31.8315H34.7499C34.0179 31.8316 33.3127 32.1068 32.7742 32.6027C32.2358 33.0985 31.9034 33.7787 31.8432 34.5082L31.8332 34.7482V47.2482C31.8333 47.9805 32.1088 48.6859 32.605 49.2244C33.1011 49.7629 33.7817 50.095 34.5115 50.1549L34.7499 50.1649H47.2499C47.9821 50.1648 48.6876 49.8893 49.2261 49.3931C49.7646 48.8969 50.0967 48.2163 50.1565 47.4865L50.1665 47.2482V34.7482C50.1665 33.9747 49.8593 33.2328 49.3123 32.6858C48.7653 32.1388 48.0234 31.8315 47.2499 31.8315ZM40.9999 34.3332C41.3314 34.3332 41.6493 34.4649 41.8838 34.6993C42.1182 34.9337 42.2499 35.2517 42.2499 35.5832V39.7465H46.4165C46.7481 39.7465 47.066 39.8782 47.3004 40.1127C47.5348 40.3471 47.6665 40.665 47.6665 40.9965C47.6665 41.3281 47.5348 41.646 47.3004 41.8804C47.066 42.1148 46.7481 42.2465 46.4165 42.2465H42.2499V46.4165C42.2499 46.7481 42.1182 47.066 41.8838 47.3004C41.6493 47.5348 41.3314 47.6665 40.9999 47.6665C40.6684 47.6665 40.3504 47.5348 40.116 47.3004C39.8816 47.066 39.7499 46.7481 39.7499 46.4165V42.2465H35.5832C35.2517 42.2465 34.9337 42.1148 34.6993 41.8804C34.4649 41.646 34.3332 41.3281 34.3332 40.9965C34.3332 40.665 34.4649 40.3471 34.6993 40.1127C34.9337 39.8782 35.2517 39.7465 35.5832 39.7465H39.7499V35.5832C39.7499 35.2517 39.8816 34.9337 40.116 34.6993C40.3504 34.4649 40.6684 34.3332 40.9999 34.3332ZM41.9699 23.0549L42.0565 23.3499L43.2115 27.6632H40.6232L39.6432 23.9965C39.5442 23.6264 39.3732 23.2793 39.14 22.9752C38.9068 22.6712 38.6159 22.4161 38.2841 22.2244C37.9522 22.0328 37.5859 21.9085 37.206 21.8585C36.826 21.8085 36.44 21.8339 36.0699 21.9332L23.9965 25.1699C23.2917 25.3589 22.6834 25.8052 22.2916 26.4207C21.8997 27.0363 21.7528 27.7763 21.8799 28.4949L21.9332 28.7415L25.1699 40.8149C25.3217 41.3822 25.6412 41.8905 26.0867 42.2732C26.5322 42.6559 27.0828 42.8953 27.6665 42.9599V45.4699C26.5829 45.4053 25.5436 45.0168 24.6834 44.3547C23.8231 43.6926 23.1814 42.7875 22.8415 41.7565L22.7549 41.4632L19.5199 29.3882C19.1615 28.0522 19.3279 26.6296 19.9849 25.4124C20.6419 24.1951 21.7397 23.2753 23.0532 22.8415L23.3499 22.7549L35.4232 19.5199C36.7592 19.1615 38.1818 19.3279 39.399 19.9849C40.6163 20.6419 41.5361 21.7397 41.9699 23.0532V23.0549Z" fill="#908294"/>
</svg>
