<svg width="72" height="72" viewBox="0 0 72 72" fill="none" xmlns="http://www.w3.org/2000/svg">
<circle cx="36" cy="36" r="36" fill="#372839"/>
<g clip-path="url(#clip0_1_274)">
<path d="M23.625 25.875C23.3266 25.875 23.0405 25.7565 22.8295 25.5455C22.6185 25.3345 22.5 25.0484 22.5 24.75C22.5 24.4516 22.6185 24.1655 22.8295 23.9545C23.0405 23.7435 23.3266 23.625 23.625 23.625H48.375C48.6734 23.625 48.9595 23.7435 49.1705 23.9545C49.3815 24.1655 49.5 24.4516 49.5 24.75C49.5 25.0484 49.3815 25.3345 49.1705 25.5455C48.9595 25.7565 48.6734 25.875 48.375 25.875H23.625ZM28.125 21.375C27.8266 21.375 27.5405 21.2565 27.3295 21.0455C27.1185 20.8345 27 20.5484 27 20.25C27 19.9516 27.1185 19.6655 27.3295 19.4545C27.5405 19.2435 27.8266 19.125 28.125 19.125H43.875C44.1734 19.125 44.4595 19.2435 44.6705 19.4545C44.8815 19.6655 45 19.9516 45 20.25C45 20.5484 44.8815 20.8345 44.6705 21.0455C44.4595 21.2565 44.1734 21.375 43.875 21.375H28.125ZM18 47.25C18 48.1451 18.3556 49.0036 18.9885 49.6365C19.6214 50.2694 20.4799 50.625 21.375 50.625H50.625C51.5201 50.625 52.3786 50.2694 53.0115 49.6365C53.6444 49.0036 54 48.1451 54 47.25V31.5C54 30.6049 53.6444 29.7464 53.0115 29.1135C52.3786 28.4806 51.5201 28.125 50.625 28.125H21.375C20.4799 28.125 19.6214 28.4806 18.9885 29.1135C18.3556 29.7464 18 30.6049 18 31.5V47.25ZM21.375 48.375C21.0766 48.375 20.7905 48.2565 20.5795 48.0455C20.3685 47.8345 20.25 47.5484 20.25 47.25V31.5C20.25 31.2016 20.3685 30.9155 20.5795 30.7045C20.7905 30.4935 21.0766 30.375 21.375 30.375H50.625C50.9234 30.375 51.2095 30.4935 51.4205 30.7045C51.6315 30.9155 51.75 31.2016 51.75 31.5V47.25C51.75 47.5484 51.6315 47.8345 51.4205 48.0455C51.2095 48.2565 50.9234 48.375 50.625 48.375H21.375Z" fill="#908294"/>
</g>
<defs>
<clipPath id="clip0_1_274">
<rect width="36" height="36" fill="white" transform="translate(18 18)"/>
</clipPath>
</defs>
</svg>
