<svg width="72" height="72" viewBox="0 0 72 72" fill="none" xmlns="http://www.w3.org/2000/svg">
<circle cx="36" cy="36" r="36" fill="#372839"/>
<path d="M49.9999 31H48.9999V25C48.9999 24.7348 48.8945 24.4804 48.707 24.2929C48.5195 24.1054 48.2651 24 47.9999 24H23.9999C23.7631 24.0039 23.5326 23.9236 23.3495 23.7734C23.1664 23.6232 23.0425 23.413 22.9999 23.18V22.82C23.0425 22.587 23.1664 22.3768 23.3495 22.2266C23.5326 22.0764 23.7631 21.9961 23.9999 22H47.5799C47.8451 22 48.0995 21.8946 48.287 21.7071C48.4745 21.5196 48.5799 21.2652 48.5799 21C48.5799 20.7348 48.4745 20.4804 48.287 20.2929C48.0995 20.1054 47.8451 20 47.5799 20H23.9999C23.2042 20 22.4412 20.3161 21.8786 20.8787C21.316 21.4413 20.9999 22.2043 20.9999 23C20.9929 23.1199 20.9929 23.2401 20.9999 23.36V43.93C21.0038 44.4684 21.1138 45.0008 21.3234 45.4967C21.5331 45.9927 21.8384 46.4424 22.2219 46.8204C22.6054 47.1983 23.0596 47.497 23.5586 47.6994C24.0575 47.9018 24.5915 48.0039 25.1299 48H47.9999C48.2651 48 48.5195 47.8946 48.707 47.7071C48.8945 47.5196 48.9999 47.2652 48.9999 47V41H49.9999C50.2651 41 50.5195 40.8946 50.707 40.7071C50.8945 40.5196 50.9999 40.2652 50.9999 40V32C50.9999 31.7348 50.8945 31.4804 50.707 31.2929C50.5195 31.1054 50.2651 31 49.9999 31ZM46.9999 46H25.1299C24.5737 46.0054 24.0379 45.7909 23.639 45.4032C23.2401 45.0156 23.0104 44.4861 22.9999 43.93V25.88C23.3245 25.9741 23.6623 26.0146 23.9999 26H46.9999V31H39.9999C38.6738 31 37.402 31.5268 36.4644 32.4645C35.5267 33.4021 34.9999 34.6739 34.9999 36C34.9999 37.3261 35.5267 38.5978 36.4644 39.5355C37.402 40.4732 38.6738 41 39.9999 41H46.9999V46ZM48.9999 39H39.9999C39.2042 39 38.4412 38.6839 37.8786 38.1213C37.316 37.5587 36.9999 36.7956 36.9999 36C36.9999 35.2043 37.316 34.4413 37.8786 33.8787C38.4412 33.3161 39.2042 33 39.9999 33H48.9999V39Z" fill="#908294"/>
<path d="M41.0103 37.5C41.8387 37.5 42.5103 36.8284 42.5103 36C42.5103 35.1716 41.8387 34.5 41.0103 34.5C40.1818 34.5 39.5103 35.1716 39.5103 36C39.5103 36.8284 40.1818 37.5 41.0103 37.5Z" fill="#908294"/>
</svg>
